<svg xmlns="http://www.w3.org/2000/svg" xmlns:xlink="http://www.w3.org/1999/xlink" version="1.1" id="Layer_1" x="0px" y="0px" width="100%" viewBox="0 0 460 460" enable-background="new 0 0 460 460" xml:space="preserve">
<path fill="#626366" opacity="1.000000" stroke="none" d=" M1.000000,207.468658   C3.417850,200.617172 5.521364,194.092789 8.318608,187.880798   C14.248100,174.712845 23.485714,164.154053 34.347202,154.673080   C42.826588,147.271439 50.408451,138.839355 58.362511,130.838684   C69.011871,120.126915 79.635513,109.389580 91.347801,97.576324   C113.308113,120.654755 135.039230,143.492310 156.730392,166.287888   C139.221268,183.770340 120.616432,202.346848 102.348930,220.586517   C113.234619,231.658569 123.824944,242.430191 134.591034,253.380600   C147.783539,240.112686 160.974777,226.846054 175.261597,212.477570   C181.872299,219.532089 188.709778,226.066620 194.491196,233.430283   C196.397278,235.858002 195.668915,240.420212 195.973267,244.020920   C196.280228,247.652756 196.612289,251.312241 196.465958,254.940765   C196.385880,256.926422 195.926483,259.453400 194.642700,260.752655   C160.503433,295.303345 126.234390,329.725800 90.989174,365.174042   C78.833527,352.625153 67.169754,340.439911 55.342453,328.415466   C43.944180,316.827179 32.036823,305.720551 20.990604,293.811035   C11.996480,284.113953 6.659562,272.138947 3.038288,259.443512   C2.638403,258.041626 2.145108,256.666382 1.347565,255.139374   C1.000000,239.312439 1.000000,223.624878 1.000000,207.468658  z"/>
<path fill="#626366" opacity="1.000000" stroke="none" d=" M245.531342,0.999999   C250.333221,2.170763 254.630905,3.499248 259.005798,4.485119   C278.447205,8.866201 293.006836,20.678522 306.450562,34.637207   C318.741516,47.398949 331.734985,59.482315 344.346405,71.937996   C349.893494,77.416580 355.082520,83.268913 360.785583,88.573685   C363.617676,91.207993 362.885071,92.547089 360.550262,94.866844   C337.959991,117.311295 315.479614,139.866302 292.967621,162.389496   C290.506531,164.851837 287.794678,167.115677 285.650543,169.828384   C283.403412,172.671387 281.914154,172.623352 279.386688,170.045486   C272.080658,162.593750 264.494659,155.416580 256.672760,147.794678   C267.313477,136.754074 277.588043,126.093353 287.829651,115.466843   C285.283051,112.344223 282.736237,109.221390 281.057678,107.163162   C269.826141,117.424774 259.577606,126.788284 248.929855,136.516556   C247.407639,135.215805 245.190170,133.320953 242.358383,130.901169   C247.964890,125.958466 253.507339,121.072205 258.958405,116.266525   C255.304504,112.232285 252.688248,109.343719 249.600922,105.935043   C244.279282,111.586067 239.334991,116.836395 233.915985,122.590820   C231.850601,119.763626 230.018295,117.255470 227.988083,114.476418   C236.827148,105.236740 246.618103,95.002022 256.616364,84.550606   C253.494568,81.504066 250.649490,78.727562 247.327911,75.486053   C228.644791,94.730507 210.023987,113.910774 191.260971,133.237534   C213.086258,154.867386 234.836868,176.423233 258.019043,199.397827   C250.334885,206.449402 243.354004,212.994324 236.128571,219.257095   C235.456497,219.839615 232.758911,219.118637 231.804672,218.183594   C221.393311,207.981628 211.142456,197.615921 200.847092,187.295593   C190.106644,176.529114 179.365341,165.763489 168.213058,154.585159   C167.002777,156.320236 165.968643,157.802780 165.196701,158.909454   C142.414215,136.188446 120.119606,113.953995 97.379730,91.275482   C103.642868,84.920929 109.921776,78.423828 116.339783,72.067162   C127.055199,61.454185 137.762054,50.829117 148.657776,40.402748   C157.145874,32.280281 165.419952,23.809917 174.686951,16.657387   C186.010178,7.917799 199.706665,4.194363 213.834778,1.362581   C224.354233,1.000000 234.708450,1.000000 245.531342,0.999999  z"/>
<path fill="#616265" opacity="1.000000" stroke="none" d=" M461.000000,247.531342   C459.012665,254.531036 457.165283,261.108673 455.009979,267.583801   C449.842834,283.107330 439.272095,294.743195 427.814880,305.923157   C408.702484,324.573029 389.998810,343.641785 371.114746,362.525909   C370.646332,362.994354 370.080963,363.365845 369.002350,364.229919   C354.853516,349.890839 340.677368,335.478424 326.447754,321.118988   C316.760925,311.343719 307.069580,301.570648 297.225647,291.954865   C294.502747,289.295044 294.211060,287.694763 297.227386,284.811890   C308.362366,274.169556 319.428223,263.428589 330.006836,252.239471   C337.410248,244.408798 337.826233,228.490036 329.391266,219.492035   C320.084991,209.564545 310.421539,199.967010 300.768646,190.371674   C296.933624,186.559509 292.709229,183.139114 289.317322,180.123001   C316.186737,152.434677 342.574066,125.243164 369.656738,97.335106   C379.209015,107.138397 387.948517,116.182167 396.772339,125.142914   C406.201447,134.718338 415.789612,144.138107 425.158142,153.771896   C432.253143,161.067764 439.848328,168.043869 445.896454,176.150436   C454.090363,187.133072 457.730072,200.300476 460.639801,213.839279   C461.000000,225.020889 461.000000,236.041794 461.000000,247.531342  z"/>
<path fill="#EAA640" opacity="1.000000" stroke="none" d=" M213.468658,461.000000   C208.828888,459.738647 204.704300,458.288116 200.478561,457.248871   C182.728226,452.883606 168.901215,442.429779 156.431946,429.600159   C143.708023,416.508484 130.731277,403.661072 117.779251,390.793243   C110.962395,384.020721 103.961952,377.433044 97.451233,371.154205   C130.387390,337.286835 162.843628,303.912933 195.299881,270.539032   C195.986053,270.872955 196.672226,271.206909 197.358414,271.540833   C197.906601,281.657928 198.435089,291.776123 199.011261,301.891602   C199.302139,306.998169 199.586197,312.109009 200.086487,317.196960   C200.203873,318.390747 200.939468,319.743866 201.804352,320.611115   C215.432404,334.276276 229.126709,347.875336 242.824799,361.470398   C242.993896,361.638184 243.410843,361.556213 244.477493,361.678802   C243.298553,334.871155 242.124527,308.175446 240.927322,280.952667   C246.660965,284.811188 251.630417,288.601471 257.010406,291.672577   C265.304169,296.406952 274.187531,298.628418 283.553192,294.969879   C286.755096,293.719086 288.864044,294.737549 291.011719,296.891388   C309.800415,315.734467 328.617767,334.548981 347.420441,353.378143   C351.999939,357.964111 356.483368,362.649200 361.158295,367.135162   C363.141541,369.038208 363.386780,370.175262 361.208496,372.325867   C338.165497,395.076019 315.500305,418.215057 292.186035,440.681366   C281.980927,450.515289 268.841034,455.550262 255.071533,458.669830   C252.511963,459.249725 249.936966,459.761566 247.184540,460.652405   C235.979111,461.000000 224.958206,461.000000 213.468658,461.000000  M196.033966,383.229218   C197.506821,383.818237 198.974991,384.904785 200.453278,384.918762   C214.283371,385.049469 228.118439,385.166809 241.944778,384.904083   C246.794022,384.811920 248.356476,386.408539 248.101486,391.223541   C247.723068,398.369141 248.159470,405.555908 247.872360,412.710022   C247.813797,414.169556 246.122787,416.772278 245.127625,416.799805   C234.365097,417.097595 223.591248,416.985718 212.225220,416.985718   C212.225220,409.995728 212.225220,403.591888 212.225220,396.995270   C206.565552,396.995270 201.514496,396.995270 196.285400,396.995270   C196.285400,408.069275 196.285400,418.807983 196.285400,429.892365   C215.686020,429.892365 234.811951,430.121063 253.926971,429.764771   C260.365448,429.644745 263.311798,425.669373 263.329254,419.249512   C263.362274,407.084686 263.365448,394.919647 263.328125,382.754852   C263.308075,376.219025 259.799500,372.696594 253.174103,372.678375   C235.343491,372.629303 217.512650,372.656067 199.681915,372.677643   C198.580597,372.678955 197.479553,372.895874 196.008240,373.051697   C196.008240,376.349915 196.008240,379.319550 196.033966,383.229218  z"/>
<path fill="#636467" opacity="1.000000" stroke="none" d=" M277.331482,241.331161   C274.967346,243.677628 272.909821,245.831131 270.729492,247.852173   C267.784485,250.582077 264.571350,250.349991 261.832581,247.772644   C255.224930,241.554489 248.845200,235.094925 242.308807,228.799957   C239.924759,226.503998 241.547348,224.954620 243.126190,223.430954   C249.519806,217.260788 255.958847,211.137711 263.699310,203.736923   C270.542603,211.237579 277.249115,218.559723 283.920044,225.914124   C286.572174,228.838013 286.624634,231.838821 283.858734,234.734619   C281.804504,236.885345 279.677826,238.966873 277.331482,241.331161  z"/>
</svg>